<?xml version="1.0" encoding="UTF-8" standalone="no"?>
<!-- Created with Inkscape (http://www.inkscape.org/) -->

<svg
   xmlns:dc="http://purl.org/dc/elements/1.1/"
   xmlns:cc="http://creativecommons.org/ns#"
   xmlns:rdf="http://www.w3.org/1999/02/22-rdf-syntax-ns#"
   xmlns:svg="http://www.w3.org/2000/svg"
   xmlns="http://www.w3.org/2000/svg"
   xmlns:sodipodi="http://sodipodi.sourceforge.net/DTD/sodipodi-0.dtd"
   xmlns:inkscape="http://www.inkscape.org/namespaces/inkscape"
   width="128"
   height="128"
   viewBox="0 0 128 128"
   version="1.1"
   id="svg8"
   inkscape:export-filename="D:\Bethesda Game Modding\Mod Organizer 2\stylesheets\Paper\Dark\dots.png"
   inkscape:export-xdpi="307.20001"
   inkscape:export-ydpi="307.20001"
   inkscape:version="0.92.1 r15371"
   sodipodi:docname="nexus.svg">
  <defs
     id="defs2" />
  <sodipodi:namedview
     id="base"
     pagecolor="#505050"
     bordercolor="#666666"
     borderopacity="1.0"
     inkscape:pageopacity="0"
     inkscape:pageshadow="2"
     inkscape:zoom="12.991372"
     inkscape:cx="76.213845"
     inkscape:cy="37.493768"
     inkscape:document-units="px"
     inkscape:current-layer="layer25"
     showgrid="false"
     units="px"
     borderlayer="true"
     inkscape:showpageshadow="false"
     inkscape:snap-page="true"
     inkscape:snap-bbox="true"
     inkscape:bbox-nodes="true"
     inkscape:snap-bbox-edge-midpoints="true"
     inkscape:snap-bbox-midpoints="true"
     showguides="true"
     inkscape:guide-bbox="true"
     inkscape:window-width="1920"
     inkscape:window-height="1027"
     inkscape:window-x="-8"
     inkscape:window-y="-8"
     inkscape:window-maximized="1"
     inkscape:snap-center="true"
     inkscape:snap-object-midpoints="true"
     inkscape:measure-start="108.073,108.073"
     inkscape:measure-end="112.737,112.737"
     inkscape:snap-intersection-paths="true"
     inkscape:object-paths="true"
     inkscape:snap-smooth-nodes="true"
     inkscape:snap-midpoints="true"
     inkscape:snap-global="true">
    <sodipodi:guide
       position="64,64"
       orientation="1,0"
       id="guide4039"
       inkscape:locked="false" />
    <sodipodi:guide
       position="64,64"
       orientation="0,1"
       id="guide3935"
       inkscape:locked="false"
       inkscape:label="255"
       inkscape:color="rgb(0,0,255)" />
  </sodipodi:namedview>
  <metadata
     id="metadata5">
    <rdf:RDF>
      <cc:Work
         rdf:about="">
        <dc:format>image/svg+xml</dc:format>
        <dc:type
           rdf:resource="http://purl.org/dc/dcmitype/StillImage" />
        <dc:title />
      </cc:Work>
    </rdf:RDF>
  </metadata>
  <g
     inkscape:groupmode="layer"
     id="layer25"
     inkscape:label="Content"
     transform="translate(0,108)">
    <path
       style="opacity:1;fill:#4e4b42;fill-opacity:1;fill-rule:nonzero;stroke:none;stroke-width:7.99999952;stroke-linecap:round;stroke-linejoin:miter;stroke-miterlimit:4;stroke-dasharray:none;stroke-dashoffset:120;stroke-opacity:1;paint-order:normal"
       d="m 37.578906,-103.99986 -2.327345,1.09219 c -5.625077,2.65309 -12.341703,6.959572 -18.124217,14.742184 l -1.439062,1.942967 -0.3,2.397657 c -0.727944,5.785703 0.645537,10.927203 2.601562,15.550782 -3.97001,7.523426 -6.539675,15.713366 -6.546095,24.274216 h 0.01176 v 0.06094 c 0.01254,2.097981 0.399663,4.072256 0.646875,6.100783 -3.5620623,4.427533 -7.0313403,9.956846 -7.8375002,17.704685 l -0.2648844,2.554689 1.0921859,2.327343 c 2.6531016,5.6250757 6.9595777,12.341692 14.7421887,18.12422 l 1.94297,1.4390639 2.397656,0.3 c 5.785701,0.727944 10.927203,-0.6455399 15.55078,-2.6015644 7.523428,3.9700084 15.713368,6.539664 24.274217,6.546096 v -0.012 h 0.06094 c 2.097982,-0.0126 4.072257,-0.39966 6.100783,-0.646872 4.427536,3.5620555 9.956847,7.0313275 17.704687,7.8374995 l 2.554687,0.26484 2.327343,-1.092192 C 98.373512,12.254575 105.09014,7.9480995 110.87265,0.1654875 l 1.43672,-1.9429715 0.30236,-2.3976556 c 0.72794,-5.7854267 -0.64555,-10.9269284 -2.60157,-15.5505044 3.97001,-7.523428 6.53967,-15.713368 6.5461,-24.27422 h -0.012 v -0.06094 c -0.0133,-2.097984 -0.39967,-4.072258 -0.64688,-6.100783 3.56206,-4.427535 7.03131,-9.956848 7.8375,-17.704688 L 124,-70.420959 l -1.09219,-2.327345 c -2.6531,-5.625076 -6.95957,-12.341702 -14.74219,-18.124218 l -1.94297,-1.436719 -2.39765,-0.302345 c -5.785706,-0.727943 -10.927203,0.64554 -15.550778,2.601564 -7.523434,-3.970005 -15.713374,-6.539667 -24.274225,-6.546088 v 0.01172 h -0.06094 c -2.097982,0.01266 -4.072255,0.399662 -6.100782,0.646874 -4.427534,-3.562058 -9.956847,-7.031344 -17.704687,-7.837494 z m 1.485937,6.351563 c 0.03984,-7.78e-4 0.07969,-7.78e-4 0.119532,0 0.08844,8.72e-4 0.176806,0.0056 0.264842,0.01406 0.01563,-1.23e-4 0.03128,-1.23e-4 0.04686,0 0.06038,0.0056 0.120558,0.01378 0.180468,0.02344 0.03369,0.0037 0.06016,0.01978 0.09376,0.02344 8.119439,0.924618 13.438311,4.913385 17.695312,8.847652 0.518092,0.475264 0.857314,1.113992 0.960938,1.809374 1.846847,-0.259602 3.708531,-0.399736 5.573432,-0.419528 7.414774,0.0056 14.704137,1.913317 21.171093,5.540624 3.592503,-2.496611 7.615515,-4.335787 12.384376,-4.79531 1.744997,-0.168149 3.586634,-0.159114 5.503124,0.082 0.5255,0.06779 1.0245,0.270451 1.44845,0.588283 6.86031,5.097232 10.33844,10.548846 12.76641,15.658591 0.0245,0.05156 0.0622,0.100836 0.0867,0.152346 0.0157,0.04031 0.0306,0.08093 0.0445,0.121879 0.0412,0.09035 0.0779,0.182649 0.11015,0.276564 0,0.0029 0,0.0063 0,0.0094 4e-5,0.0086 4e-5,0.01718 0,0.02577 0.0284,0.09024 0.0527,0.18174 0.0727,0.274217 0.0197,0.09143 0.0355,0.18371 0.0469,0.276565 1e-5,0.0079 1e-5,0.01562 0,0.02344 0.005,0.06 0.0108,0.120187 0.0141,0.180468 7.7e-4,0.03984 7.7e-4,0.07969 0,0.119532 -8.7e-4,0.08844 -0.005,0.176808 -0.0141,0.264844 1.2e-4,0.01563 1.2e-4,0.03125 0,0.04685 -0.008,0.06038 -0.0139,0.12056 -0.0233,0.180468 -0.004,0.03369 -0.0199,0.06016 -0.0234,0.09376 -0.92463,8.119438 -4.91339,13.438312 -8.84766,17.695313 -0.47526,0.51809 -1.114,0.857312 -1.80939,0.960935 0.25962,1.846853 0.39976,3.708535 0.41955,5.573439 -0.005,7.414773 -1.91333,14.704135 -5.54064,21.171093 2.49662,3.592503 4.33578,7.615515 4.79533,12.384375 0.16814,1.7449932 0.1591,3.586632 -0.0819,5.5031256 -0.0677,0.5254956 -0.27045,1.0244952 -0.58828,1.4484372 -5.09716,6.8603052 -10.548768,10.3384447 -15.658515,12.7664047 -0.05156,0.02448 -0.100836,0.06228 -0.152342,0.08676 -0.04031,0.01572 -0.08092,0.0306 -0.12188,0.04452 -0.09035,0.04116 -0.182648,0.07788 -0.276562,0.11016 -0.0031,0 -0.0063,0 -0.0094,0 -0.0086,3.5e-5 -0.01718,3.5e-5 -0.02577,0 -0.09024,0.02844 -0.181741,0.05268 -0.274216,0.07272 -0.09143,0.0198 -0.183711,0.03552 -0.276563,0.04692 -0.0079,2.4e-5 -0.01563,2.4e-5 -0.02344,0 -0.06,0.006 -0.120186,0.0108 -0.180468,0.01404 -0.03984,7.8e-4 -0.0797,7.8e-4 -0.119532,0 -0.08844,-8.64e-4 -0.176806,-0.006 -0.264846,-0.01404 -0.01563,1.2e-4 -0.03128,1.2e-4 -0.04686,0 -0.06037,-0.006 -0.120559,-0.0138 -0.180469,-0.0234 -0.03369,-0.0036 -0.06014,-0.0198 -0.09376,-0.0234 C 80.110654,8.6632245 74.79178,4.6744608 70.534779,0.740188 c -0.51809,-0.47526 -0.857313,-1.113984 -0.960936,-1.8093745 -1.847084,0.259404 -3.708765,0.3995425 -5.573668,0.4193305 -7.414776,-0.006 -14.704135,-1.9133172 -21.171094,-5.5406236 -3.592503,2.4966096 -7.615515,4.3357863 -12.384377,4.7953119 -1.744993,0.1681465 -3.586632,0.1591105 -5.503122,-0.082008 -0.525498,-0.067788 -1.024497,-0.2704523 -1.448438,-0.5882844 -6.860299,-5.0972295 -10.338443,-10.5488439 -12.766408,-15.6585929 -0.0245,-0.05156 -0.06234,-0.10086 -0.08672,-0.152343 -0.0157,-0.0403 -0.03056,-0.08095 -0.04453,-0.12188 -0.04117,-0.09035 -0.07795,-0.182646 -0.11016,-0.276563 -6e-6,-0.0031 -6e-6,-0.0063 0,-0.0094 -3.6e-5,-0.0086 -3.6e-5,-0.01718 0,-0.02577 -0.02843,-0.09024 -0.05268,-0.181742 -0.07265,-0.274218 -0.01984,-0.09143 -0.03547,-0.183709 -0.04685,-0.276562 -3.1e-5,-0.0077 -3.1e-5,-0.01562 0,-0.02344 -0.0067,-0.06 -0.01116,-0.120186 -0.0141,-0.180469 -7.76e-4,-0.03984 -7.76e-4,-0.07969 0,-0.119532 8.7e-4,-0.08844 0.0053,-0.176808 0.0141,-0.264847 -1.19e-4,-0.01563 -1.19e-4,-0.03125 0,-0.04685 0.006,-0.06037 0.0138,-0.120559 0.02344,-0.180469 0.0037,-0.03369 0.01981,-0.06014 0.02344,-0.09376 0.924627,-8.119438 4.91339,-13.438313 8.847658,-17.695312 0.475263,-0.518093 1.113993,-0.857315 1.809373,-0.960938 -0.259589,-1.846868 -0.399724,-3.708551 -0.419516,-5.573451 0.0056,-7.414775 1.913317,-14.704137 5.540624,-21.171094 -2.49661,-3.592502 -4.335787,-7.615515 -4.79531,-12.384377 -0.168149,-1.744994 -0.159113,-3.58663 0.082,-5.503124 0.06779,-0.525498 0.270452,-1.024496 0.588283,-1.448437 5.097232,-6.860299 10.548845,-10.338443 15.658591,-12.766403 0.05156,-0.02447 0.100837,-0.06234 0.152347,-0.08672 0.04031,-0.01575 0.08093,-0.03056 0.121878,-0.04453 0.09035,-0.04116 0.182646,-0.07791 0.276563,-0.110157 0.0029,0 0.0063,0 0.0094,0 0.0086,-3.7e-5 0.01718,-3.7e-5 0.02578,0 0.09024,-0.02841 0.181741,-0.05269 0.274218,-0.07266 0.09143,-0.01987 0.183711,-0.03544 0.276563,-0.04687 0.0077,-2.8e-5 0.01563,-2.8e-5 0.02344,0 0.06,-0.0066 0.120186,-0.01116 0.180468,-0.01416 z m 0.119532,3.070311 c -4.918893,2.320027 -9.830756,5.400922 -14.6625,11.903905 -0.106116,0.843338 -0.161184,1.665537 -0.171096,2.467968 -0.0098,0.802433 0.02693,1.584662 0.100776,2.350782 1.033521,10.725648 10.216452,17.923996 18.292968,25.258593 l -3.764063,4.246876 21.255469,-0.131254 -2.578125,-20.934377 -4.446092,5.025 c -7.369823,-8.23868 -18.074776,-20.906037 -14.02734,-30.187495 z m 3.009373,0.623437 c -0.04253,0.205977 -0.106176,0.407033 -0.189841,0.599999 -0.355764,0.815838 -0.552587,1.702983 -0.602346,2.660157 -0.01586,0.305199 -0.01586,0.61855 0,0.9375 0.111036,2.232626 0.98277,4.789133 2.3625,7.502343 3.563011,-1.890229 7.372419,-3.27389 11.317968,-4.110937 l 0.3,-0.119533 c -3.54753,-3.278554 -7.503737,-6.172443 -13.188279,-7.46953 z m 12.2625,4.582031 -0.215624,0.07031 -0.01176,0.02344 c 0.08105,-0.01726 0.146146,-0.07651 0.227344,-0.09376 z m 45.750002,5.723437 c -0.802434,-0.0098 -1.584666,0.02696 -2.350781,0.100775 -10.725652,1.03352 -17.923998,10.216453 -25.258595,18.292968 l -4.246878,-3.764057 0.131254,21.255469 20.934376,-2.578123 -5.025,-4.446096 c 8.238683,-7.369823 20.906044,-18.072433 30.187494,-14.025 -2.32001,-4.918892 -5.40091,-9.833098 -11.9039,-14.664842 -0.84333,-0.106117 -1.66554,-0.161182 -2.46797,-0.171094 z m 9.55079,17.050783 c -2.23265,0.111035 -4.78915,0.982766 -7.50235,2.362499 1.89023,3.563012 3.27389,7.372418 4.11093,11.317966 l 0.11965,0.3 c 3.27856,-3.547531 6.17244,-7.503737 7.46954,-13.18828 -0.20598,-0.04252 -0.40703,-0.106175 -0.6,-0.189842 -0.81584,-0.355764 -1.70298,-0.552585 -2.66016,-0.602343 -0.30519,-0.01586 -0.61855,-0.01586 -0.9375,0 z m -0.47813,12.827343 c 0.0173,0.08105 0.0764,0.146144 0.0937,0.227342 l -0.0702,-0.215625 z m -49.762503,13.535156 -20.932032,2.578124 5.025,4.446095 c -8.238684,7.369824 -20.906042,18.074776 -30.1875,14.027343 2.320026,4.918894 5.400921,9.8307519 11.903905,14.662499 0.843337,0.106116 1.665539,0.1611829 2.467968,0.1710949 0.802431,0.00984 1.584663,-0.026952 2.350782,-0.100776 10.72565,-1.0335217 17.923997,-10.2164539 25.258593,-18.2929699 l 4.246874,3.764056 z m 29.503121,0.585935 -21.255467,0.133592 2.578124,20.932032 4.446095,-5.025 c 7.369824,8.238685 18.072432,20.9060398 14.024999,30.1875015 4.91889,-2.3200323 9.833102,-5.4009245 14.664841,-11.9039095 0.10608,-0.8433371 0.16119,-1.6655363 0.1711,-2.4679691 0.01,-0.8024304 -0.027,-1.5846612 -0.1008,-2.3507799 C 102.5149,-20.870044 93.331956,-28.06839 85.255441,-35.402988 Z m -67.504684,4.267971 c -3.278554,3.547531 -6.172444,7.503737 -7.469533,13.18828 0.205978,0.04256 0.407034,0.106176 0.6,0.189843 0.815838,0.355762 1.702981,0.552586 2.660158,0.602343 0.305198,0.01586 0.618549,0.01586 0.9375,0 2.232626,-0.111036 4.789133,-0.982768 7.502342,-2.3625 -1.890227,-3.56301 -3.273887,-7.372418 -4.110936,-11.317966 z m -2.8875,0.92578 0.0703,0.215625 0.02344,0.01176 c -0.01726,-0.08105 -0.0765,-0.146143 -0.09375,-0.227344 z m 65.608592,28.7109367 c -3.563012,1.8902291 -7.37242,3.2738893 -11.317967,4.1109373 l -0.3,0.119532 c 3.54753,3.2785476 7.503737,6.1724429 13.188278,7.4695349 0.04252,-0.20598 0.106177,-0.407028 0.189844,-0.6 0.355763,-0.815844 0.552585,-1.7029799 0.602345,-2.6601593 0.01586,-0.305196 0.01586,-0.618552 0,-0.9375 -0.111036,-2.2326384 -0.982768,-4.789134 -2.3625,-7.5023449 z M 73.771091,1.2790394 c -0.08105,0.01728 -0.146145,0.07644 -0.227344,0.09372 l 0.215627,-0.07032 z"
       id="path3849"
       inkscape:connector-curvature="0"
       sodipodi:nodetypes="cccccccccccccccccccccccccccccccccccccccccccccccccccccccscccccccccccccccccccccscccccccccccccccccccccscccccccccccccccccccccscccccccccccccccccccccccccsccccccccccccccccccccccccccccccccccccccccccccccccccccccsccccccccccccccccccc" />
    <g
       style="fill:#505050;fill-opacity:1;stroke-width:0.19550784"
       id="g4412"
       inkscape:transform-center-x="-5.0913502"
       inkscape:transform-center-y="-4.4596393"
       transform="matrix(5.1148849,0,0,5.1148849,12.851148,-95.148848)" />
    <g
       transform="matrix(0,4.9102895,-4.9102895,0,113.1029,-93.102895)"
       inkscape:transform-center-y="24"
       inkscape:transform-center-x="-21.022466"
       id="g4064"
       style="fill:#505050;fill-opacity:1;stroke-width:0.20365398" />
    <g
       style="fill:#505050;fill-opacity:1;stroke-width:0.20365398"
       id="g4068"
       inkscape:transform-center-x="24.000005"
       inkscape:transform-center-y="21.022466"
       transform="matrix(-4.9102895,0,0,-4.9102895,113.10289,5.1029002)" />
    <g
       transform="matrix(-2.719147e-8,-4.9102894,4.9102894,-2.719147e-8,14.8971,5.1028901)"
       inkscape:transform-center-y="-24.000003"
       inkscape:transform-center-x="21.022466"
       id="g4072"
       style="fill:#505050;fill-opacity:1;stroke-width:0.20365398" />
  </g>
</svg>
